<svg width="28" height="28" viewBox="0 0 28 28" fill="none" xmlns="http://www.w3.org/2000/svg">
<path fill-rule="evenodd" clip-rule="evenodd" d="M14 2.33337C19.799 2.33337 24.5 6.98339 24.5 12.7195C24.5 16.5152 21.3239 20.5285 15.1063 24.9004L14 25.6667L13.3324 25.206C6.82549 20.7152 3.5 16.6035 3.5 12.7195C3.5 6.98339 8.20101 2.33337 14 2.33337ZM14 4.64139C9.48968 4.64139 5.83333 8.25807 5.83333 12.7195C5.83333 15.5224 8.51284 18.9426 14 22.8455C19.4872 18.9426 22.1667 15.5224 22.1667 12.7195C22.1667 8.25807 18.5103 4.64139 14 4.64139ZM14 7.00004C16.5773 7.00004 18.6667 9.08938 18.6667 11.6667C18.6667 14.244 16.5773 16.3334 14 16.3334C11.4227 16.3334 9.33333 14.244 9.33333 11.6667C9.33333 9.08938 11.4227 7.00004 14 7.00004ZM14 9.33337C12.7113 9.33337 11.6667 10.378 11.6667 11.6667C11.6667 12.9554 12.7113 14 14 14C15.2887 14 16.3333 12.9554 16.3333 11.6667C16.3333 10.378 15.2887 9.33337 14 9.33337Z" fill="#fff"/>
</svg>
